<svg width="256" height="256" viewBox="0 0 256 256" fill="none" xmlns="http://www.w3.org/2000/svg">
<g clip-path="url(#clip0_44_38)">
<mask id="mask0_44_38" style="mask-type:luminance" maskUnits="userSpaceOnUse" x="0" y="0" width="256" height="256">
<path d="M0 0H256V256H0V0Z" fill="white"/>
</mask>
<g mask="url(#mask0_44_38)">
<path d="M245.94 78.1744C239.495 62.9318 230.265 49.2442 218.511 37.4893C206.756 25.7346 193.068 16.5054 177.826 10.0596C162.042 3.3847 145.279 0 128 0C110.721 0 93.9584 3.3847 78.1744 10.0596C62.9318 16.5054 49.2442 25.7346 37.4893 37.4893C25.7346 49.2442 16.5054 62.9318 10.0596 78.1744C3.3847 93.9584 0 110.721 0 128C0 145.279 3.3847 162.042 10.0596 177.826C16.5054 193.068 25.7346 206.756 37.4893 218.511C49.2442 230.265 62.9318 239.495 78.1744 245.94C93.9584 252.615 110.721 256 128 256C145.279 256 162.042 252.615 177.826 245.94C193.068 239.495 206.756 230.265 218.511 218.511C230.265 206.756 239.495 193.068 245.94 177.826C252.615 162.042 256 145.279 256 128C256 110.721 252.615 93.9584 245.94 78.1744ZM174.478 17.9716C188.695 23.985 201.467 32.5955 212.434 43.5629C223.402 54.5302 232.012 67.3018 238.026 81.519C243.228 93.8208 246.287 106.767 247.152 120.1L231.176 110.143C195.817 88.1053 162.543 62.4138 132.275 33.7811L107.492 10.3373C114.215 9.17475 121.059 8.59059 127.997 8.59059C144.119 8.59059 159.756 11.7462 174.475 17.9716H174.478ZM81.5219 17.9716C86.6877 15.7867 91.968 13.9826 97.3402 12.5566L126.373 40.0208C156.953 68.9482 190.56 94.912 226.268 117.204C162.804 100.971 102.623 75.0246 47.2627 40.0266C57.3709 30.7343 68.8707 23.3235 81.5219 17.9716ZM17.9716 81.5219C23.5068 68.4355 31.2469 56.5776 40.9942 46.223C95.5533 80.952 154.754 106.988 217.171 123.705H8.6679C9.18048 109.101 12.3018 94.929 17.9744 81.5219H17.9716ZM17.9716 174.478C12.3018 161.071 9.17763 146.899 8.66506 132.295H217.371C154.892 148.998 95.6077 175.036 40.9942 209.78C31.2469 199.422 23.5068 187.567 17.9716 174.478ZM47.2656 215.976C102.649 180.987 162.869 155.043 226.354 138.827L225.277 139.503C190.331 161.415 157.391 186.868 127.373 215.155L97.3459 243.446C91.9709 242.02 86.6906 240.216 81.5219 238.028C68.8736 232.679 57.3738 225.268 47.2685 215.976H47.2656ZM238.028 174.478C232.015 188.695 223.404 201.467 212.437 212.434C201.47 223.402 188.698 232.012 174.481 238.026C159.762 244.251 144.124 247.406 128.003 247.406C121.073 247.406 114.235 246.822 107.517 245.663L133.266 221.4C162.878 193.498 195.373 168.39 229.844 146.776L247.155 135.924C246.287 149.247 243.231 162.182 238.031 174.475L238.028 174.478Z" fill="#1B1918"/>
</g>
</g>
<defs>
<clipPath id="clip0_44_38">
<rect width="256" height="256" fill="white"/>
</clipPath>
</defs>
</svg>
